<mxfile host="Electron" modified="2024-04-08T01:40:17.181Z" agent="Mozilla/5.0 (Windows NT 10.0; Win64; x64) AppleWebKit/537.36 (KHTML, like Gecko) draw.io/24.1.0 Chrome/120.0.6099.109 Electron/28.1.0 Safari/537.36" etag="84_u7GSLNfY1hwRE2pXi" version="24.1.0" type="device">
  <diagram name="Структурная схема" id="WNidYbXBGWsvnb7I26b2">
    <mxGraphModel dx="2333" dy="1593" grid="1" gridSize="10" guides="1" tooltips="1" connect="1" arrows="1" fold="1" page="1" pageScale="1" pageWidth="1169" pageHeight="827" math="0" shadow="0">
      <root>
        <mxCell id="0" />
        <mxCell id="1" parent="0" />
        <mxCell id="T10AuIIhw0mTmWrL_Tsa-95" value="" style="rounded=0;whiteSpace=wrap;html=1;movable=0;resizable=0;rotatable=0;deletable=0;editable=0;locked=1;connectable=0;strokeWidth=2;fillColor=default;strokeColor=#6c8ebf;" vertex="1" parent="1">
          <mxGeometry x="10" y="40" width="2320" height="1080" as="geometry" />
        </mxCell>
        <mxCell id="T10AuIIhw0mTmWrL_Tsa-96" value="&lt;font face=&quot;Times New Roman&quot;&gt;Структурная схема&lt;/font&gt;" style="rounded=0;whiteSpace=wrap;html=1;fillColor=#dae8fc;strokeColor=#6c8ebf;fontStyle=1;strokeWidth=2;movable=0;resizable=0;rotatable=0;deletable=0;editable=0;locked=1;connectable=0;fontSize=20;" vertex="1" parent="1">
          <mxGeometry x="10" y="10" width="2320" height="30" as="geometry" />
        </mxCell>
        <mxCell id="T10AuIIhw0mTmWrL_Tsa-1" value="Подсистема управления&lt;div&gt;профилем&lt;/div&gt;" style="rounded=0;whiteSpace=wrap;html=1;fillColor=#dae8fc;strokeColor=#6c8ebf;strokeWidth=2;fontSize=20;fontStyle=1;fontFamily=Times New Roman;" vertex="1" parent="1">
          <mxGeometry x="120" y="200" width="240" height="80" as="geometry" />
        </mxCell>
        <mxCell id="T10AuIIhw0mTmWrL_Tsa-2" value="Подсистема управления&lt;div&gt;рейсами&lt;/div&gt;" style="rounded=0;whiteSpace=wrap;html=1;fillColor=#dae8fc;strokeColor=#6c8ebf;strokeWidth=2;fontSize=20;fontStyle=1;fontFamily=Times New Roman;" vertex="1" parent="1">
          <mxGeometry x="440" y="200" width="240" height="80" as="geometry" />
        </mxCell>
        <mxCell id="T10AuIIhw0mTmWrL_Tsa-3" value="Подсистема управления&lt;div&gt;пассажирами&lt;/div&gt;" style="rounded=0;whiteSpace=wrap;html=1;fillColor=#dae8fc;strokeColor=#6c8ebf;strokeWidth=2;fontSize=20;fontStyle=1;fontFamily=Times New Roman;" vertex="1" parent="1">
          <mxGeometry x="760" y="200" width="240" height="80" as="geometry" />
        </mxCell>
        <mxCell id="T10AuIIhw0mTmWrL_Tsa-4" value="Подсистема управления&lt;div&gt;сотрудниками&lt;/div&gt;" style="rounded=0;whiteSpace=wrap;html=1;fillColor=#dae8fc;strokeColor=#6c8ebf;strokeWidth=2;fontSize=20;fontStyle=1;fontFamily=Times New Roman;" vertex="1" parent="1">
          <mxGeometry x="1080" y="200" width="240" height="80" as="geometry" />
        </mxCell>
        <mxCell id="T10AuIIhw0mTmWrL_Tsa-5" value="Информационная система&lt;br style=&quot;font-size: 21px;&quot;&gt;аэропорта" style="rounded=0;whiteSpace=wrap;html=1;fontSize=21;fontStyle=1;fillColor=#dae8fc;strokeColor=#6c8ebf;strokeWidth=2;fontFamily=Times New Roman;" vertex="1" parent="1">
          <mxGeometry x="40" y="80" width="280" height="80" as="geometry" />
        </mxCell>
        <mxCell id="T10AuIIhw0mTmWrL_Tsa-6" value="Подсистема управления&lt;div&gt;билетами&lt;/div&gt;" style="rounded=0;whiteSpace=wrap;html=1;fillColor=#dae8fc;strokeColor=#6c8ebf;strokeWidth=2;fontSize=20;fontStyle=1;fontFamily=Times New Roman;" vertex="1" parent="1">
          <mxGeometry x="1720" y="200" width="240" height="80" as="geometry" />
        </mxCell>
        <mxCell id="T10AuIIhw0mTmWrL_Tsa-7" value="" style="endArrow=none;html=1;rounded=0;strokeWidth=2;strokeColor=#6c8ebf;fillColor=#dae8fc;entryX=0.75;entryY=1;entryDx=0;entryDy=0;" edge="1" parent="1" target="T10AuIIhw0mTmWrL_Tsa-1">
          <mxGeometry width="50" height="50" relative="1" as="geometry">
            <mxPoint x="300" y="1000" as="sourcePoint" />
            <mxPoint x="240" y="280" as="targetPoint" />
          </mxGeometry>
        </mxCell>
        <mxCell id="T10AuIIhw0mTmWrL_Tsa-11" value="" style="endArrow=none;html=1;rounded=0;strokeWidth=2;strokeColor=#6c8ebf;fillColor=#dae8fc;entryX=1;entryY=0.5;entryDx=0;entryDy=0;" edge="1" parent="1" target="T10AuIIhw0mTmWrL_Tsa-106">
          <mxGeometry width="50" height="50" relative="1" as="geometry">
            <mxPoint x="300" y="420" as="sourcePoint" />
            <mxPoint x="370" y="420" as="targetPoint" />
          </mxGeometry>
        </mxCell>
        <mxCell id="T10AuIIhw0mTmWrL_Tsa-38" value="&lt;font face=&quot;Times New Roman&quot; style=&quot;font-size: 19px;&quot;&gt;Административная часть&lt;/font&gt;" style="shape=umlFrame;whiteSpace=wrap;html=1;pointerEvents=0;width=240;height=40;strokeWidth=2;strokeColor=#666666;fontSize=16;fontStyle=1;movable=1;resizable=1;rotatable=1;deletable=1;editable=1;locked=0;connectable=1;fillColor=#f5f5f5;fontColor=#333333;align=left;spacingLeft=5;" vertex="1" parent="1">
          <mxGeometry x="40" y="320" width="2260" height="360" as="geometry" />
        </mxCell>
        <mxCell id="T10AuIIhw0mTmWrL_Tsa-83" value="" style="endArrow=none;html=1;rounded=0;entryX=0.143;entryY=1;entryDx=0;entryDy=0;strokeWidth=2;strokeColor=#6c8ebf;exitX=0;exitY=0.5;exitDx=0;exitDy=0;fillColor=#dae8fc;entryPerimeter=0;" edge="1" parent="1" source="T10AuIIhw0mTmWrL_Tsa-1" target="T10AuIIhw0mTmWrL_Tsa-5">
          <mxGeometry width="50" height="50" relative="1" as="geometry">
            <mxPoint x="600" y="670" as="sourcePoint" />
            <mxPoint x="600" y="310" as="targetPoint" />
            <Array as="points">
              <mxPoint x="80" y="240" />
            </Array>
          </mxGeometry>
        </mxCell>
        <mxCell id="T10AuIIhw0mTmWrL_Tsa-86" value="" style="endArrow=none;html=1;rounded=0;strokeWidth=2;strokeColor=#6c8ebf;entryX=1;entryY=0.5;entryDx=0;entryDy=0;exitX=0;exitY=0.5;exitDx=0;exitDy=0;fillColor=#dae8fc;" edge="1" parent="1" source="T10AuIIhw0mTmWrL_Tsa-2" target="T10AuIIhw0mTmWrL_Tsa-1">
          <mxGeometry width="50" height="50" relative="1" as="geometry">
            <mxPoint x="160" y="350" as="sourcePoint" />
            <mxPoint x="130" y="350" as="targetPoint" />
          </mxGeometry>
        </mxCell>
        <mxCell id="T10AuIIhw0mTmWrL_Tsa-87" value="" style="endArrow=none;html=1;rounded=0;strokeWidth=2;strokeColor=#6c8ebf;entryX=1;entryY=0.5;entryDx=0;entryDy=0;exitX=0;exitY=0.5;exitDx=0;exitDy=0;fillColor=#dae8fc;" edge="1" parent="1" source="T10AuIIhw0mTmWrL_Tsa-3" target="T10AuIIhw0mTmWrL_Tsa-2">
          <mxGeometry width="50" height="50" relative="1" as="geometry">
            <mxPoint x="320" y="280" as="sourcePoint" />
            <mxPoint x="280" y="280" as="targetPoint" />
          </mxGeometry>
        </mxCell>
        <mxCell id="T10AuIIhw0mTmWrL_Tsa-88" value="" style="endArrow=none;html=1;rounded=0;strokeWidth=2;strokeColor=#6c8ebf;entryX=1;entryY=0.5;entryDx=0;entryDy=0;exitX=0;exitY=0.5;exitDx=0;exitDy=0;fillColor=#dae8fc;" edge="1" parent="1" source="T10AuIIhw0mTmWrL_Tsa-4" target="T10AuIIhw0mTmWrL_Tsa-3">
          <mxGeometry width="50" height="50" relative="1" as="geometry">
            <mxPoint x="600" y="280" as="sourcePoint" />
            <mxPoint x="560" y="280" as="targetPoint" />
          </mxGeometry>
        </mxCell>
        <mxCell id="T10AuIIhw0mTmWrL_Tsa-89" value="" style="endArrow=none;html=1;rounded=0;strokeWidth=2;strokeColor=#6c8ebf;entryX=1;entryY=0.5;entryDx=0;entryDy=0;exitX=0;exitY=0.5;exitDx=0;exitDy=0;fillColor=#dae8fc;" edge="1" parent="1" source="T10AuIIhw0mTmWrL_Tsa-193" target="T10AuIIhw0mTmWrL_Tsa-4">
          <mxGeometry width="50" height="50" relative="1" as="geometry">
            <mxPoint x="1200" y="280" as="sourcePoint" />
            <mxPoint x="1160" y="280" as="targetPoint" />
          </mxGeometry>
        </mxCell>
        <mxCell id="T10AuIIhw0mTmWrL_Tsa-101" value="Подсистема управления&lt;div&gt;сбросами паролей&lt;/div&gt;" style="rounded=0;whiteSpace=wrap;html=1;fillColor=#dae8fc;strokeColor=#6c8ebf;strokeWidth=2;fontSize=20;fontStyle=1;fontFamily=Times New Roman;" vertex="1" parent="1">
          <mxGeometry x="2040" y="200" width="240" height="80" as="geometry" />
        </mxCell>
        <mxCell id="T10AuIIhw0mTmWrL_Tsa-103" value="" style="endArrow=none;html=1;rounded=0;strokeWidth=2;strokeColor=#6c8ebf;exitX=0;exitY=0.5;exitDx=0;exitDy=0;fillColor=#dae8fc;entryX=1;entryY=0.5;entryDx=0;entryDy=0;" edge="1" parent="1" source="T10AuIIhw0mTmWrL_Tsa-101" target="T10AuIIhw0mTmWrL_Tsa-6">
          <mxGeometry width="50" height="50" relative="1" as="geometry">
            <mxPoint x="1490" y="330" as="sourcePoint" />
            <mxPoint x="2040" y="130" as="targetPoint" />
          </mxGeometry>
        </mxCell>
        <mxCell id="T10AuIIhw0mTmWrL_Tsa-105" value="" style="endArrow=none;html=1;rounded=0;strokeWidth=2;strokeColor=#6c8ebf;fillColor=#dae8fc;entryX=1;entryY=0.5;entryDx=0;entryDy=0;" edge="1" parent="1" target="T10AuIIhw0mTmWrL_Tsa-107">
          <mxGeometry width="50" height="50" relative="1" as="geometry">
            <mxPoint x="300" y="480" as="sourcePoint" />
            <mxPoint x="340" y="510" as="targetPoint" />
          </mxGeometry>
        </mxCell>
        <mxCell id="T10AuIIhw0mTmWrL_Tsa-106" value="&lt;b style=&quot;font-family: &amp;quot;Times New Roman&amp;quot;; font-size: 15px;&quot;&gt;Просмотр&lt;/b&gt;&lt;div&gt;&lt;b style=&quot;background-color: initial; font-family: &amp;quot;Times New Roman&amp;quot;;&quot;&gt;&lt;span style=&quot;background-color: initial;&quot;&gt;профиля администратора&lt;/span&gt;&lt;/b&gt;&lt;/div&gt;" style="rounded=0;whiteSpace=wrap;html=1;fillColor=#dae8fc;strokeColor=#6c8ebf;strokeWidth=2;align=right;fontSize=15;spacingRight=2;" vertex="1" parent="1">
          <mxGeometry x="80" y="400" width="190" height="40" as="geometry" />
        </mxCell>
        <mxCell id="T10AuIIhw0mTmWrL_Tsa-107" value="&lt;b style=&quot;font-family: &amp;quot;Times New Roman&amp;quot;; font-size: 15px;&quot;&gt;Изменение&amp;nbsp;&lt;/b&gt;&lt;b style=&quot;background-color: initial; font-family: &amp;quot;Times New Roman&amp;quot;;&quot;&gt;фото&lt;/b&gt;&lt;div&gt;&lt;b style=&quot;background-color: initial; font-family: &amp;quot;Times New Roman&amp;quot;;&quot;&gt;профиля администратора&lt;/b&gt;&lt;/div&gt;" style="rounded=0;whiteSpace=wrap;html=1;fillColor=#dae8fc;strokeColor=#6c8ebf;strokeWidth=2;align=right;verticalAlign=middle;fontSize=15;spacingRight=2;" vertex="1" parent="1">
          <mxGeometry x="80" y="460" width="190" height="40" as="geometry" />
        </mxCell>
        <mxCell id="T10AuIIhw0mTmWrL_Tsa-111" value="&lt;font face=&quot;Times New Roman&quot;&gt;&lt;b&gt;Обновление&lt;/b&gt;&lt;/font&gt;&lt;div&gt;&lt;font face=&quot;Times New Roman&quot;&gt;&lt;b&gt;профиля&amp;nbsp;&lt;/b&gt;&lt;/font&gt;&lt;b style=&quot;background-color: initial; font-family: &amp;quot;Times New Roman&amp;quot;;&quot;&gt;администратора&lt;/b&gt;&lt;/div&gt;" style="rounded=0;whiteSpace=wrap;html=1;fillColor=#dae8fc;strokeColor=#6c8ebf;strokeWidth=2;align=right;fontSize=15;spacingRight=2;" vertex="1" parent="1">
          <mxGeometry x="80" y="520" width="190" height="40" as="geometry" />
        </mxCell>
        <mxCell id="T10AuIIhw0mTmWrL_Tsa-112" value="&lt;font face=&quot;Times New Roman&quot;&gt;&lt;b&gt;Изменение&amp;nbsp;&lt;/b&gt;&lt;/font&gt;&lt;b style=&quot;font-family: &amp;quot;Times New Roman&amp;quot;; background-color: initial;&quot;&gt;пароля администратора&lt;/b&gt;" style="rounded=0;whiteSpace=wrap;html=1;fillColor=#dae8fc;strokeColor=#6c8ebf;strokeWidth=2;align=right;fontSize=15;spacingRight=2;" vertex="1" parent="1">
          <mxGeometry x="80" y="580" width="190" height="40" as="geometry" />
        </mxCell>
        <mxCell id="T10AuIIhw0mTmWrL_Tsa-113" value="" style="endArrow=none;html=1;rounded=0;strokeWidth=2;strokeColor=#6c8ebf;fillColor=#dae8fc;entryX=1;entryY=0.5;entryDx=0;entryDy=0;" edge="1" parent="1" target="T10AuIIhw0mTmWrL_Tsa-111">
          <mxGeometry width="50" height="50" relative="1" as="geometry">
            <mxPoint x="300" y="540" as="sourcePoint" />
            <mxPoint x="280" y="490" as="targetPoint" />
          </mxGeometry>
        </mxCell>
        <mxCell id="T10AuIIhw0mTmWrL_Tsa-114" value="" style="endArrow=none;html=1;rounded=0;strokeWidth=2;strokeColor=#6c8ebf;fillColor=#dae8fc;exitX=1;exitY=0.5;exitDx=0;exitDy=0;" edge="1" parent="1" source="T10AuIIhw0mTmWrL_Tsa-112">
          <mxGeometry width="50" height="50" relative="1" as="geometry">
            <mxPoint x="320" y="500" as="sourcePoint" />
            <mxPoint x="300" y="600" as="targetPoint" />
          </mxGeometry>
        </mxCell>
        <mxCell id="T10AuIIhw0mTmWrL_Tsa-115" value="" style="endArrow=none;html=1;rounded=0;entryX=0.75;entryY=1;entryDx=0;entryDy=0;strokeWidth=2;strokeColor=#6c8ebf;fillColor=#dae8fc;" edge="1" parent="1" target="T10AuIIhw0mTmWrL_Tsa-2">
          <mxGeometry width="50" height="50" relative="1" as="geometry">
            <mxPoint x="620" y="820" as="sourcePoint" />
            <mxPoint x="530" y="370" as="targetPoint" />
          </mxGeometry>
        </mxCell>
        <mxCell id="T10AuIIhw0mTmWrL_Tsa-116" value="&lt;font face=&quot;Times New Roman&quot;&gt;&lt;b&gt;Добавление рейса&lt;/b&gt;&lt;/font&gt;" style="rounded=0;whiteSpace=wrap;html=1;fillColor=#dae8fc;strokeColor=#6c8ebf;strokeWidth=2;align=right;fontSize=15;spacingRight=2;" vertex="1" parent="1">
          <mxGeometry x="420" y="390" width="160" height="40" as="geometry" />
        </mxCell>
        <mxCell id="T10AuIIhw0mTmWrL_Tsa-117" value="" style="endArrow=none;html=1;rounded=0;strokeWidth=2;strokeColor=#6c8ebf;fillColor=#dae8fc;entryX=1;entryY=0.5;entryDx=0;entryDy=0;" edge="1" parent="1" target="T10AuIIhw0mTmWrL_Tsa-116">
          <mxGeometry width="50" height="50" relative="1" as="geometry">
            <mxPoint x="620" y="410" as="sourcePoint" />
            <mxPoint x="280" y="420" as="targetPoint" />
          </mxGeometry>
        </mxCell>
        <mxCell id="T10AuIIhw0mTmWrL_Tsa-118" value="&lt;font face=&quot;Times New Roman&quot;&gt;&lt;b&gt;Обновление информации о рейсе&lt;/b&gt;&lt;/font&gt;" style="rounded=0;whiteSpace=wrap;html=1;fillColor=#dae8fc;strokeColor=#6c8ebf;strokeWidth=2;align=right;fontSize=15;spacingRight=2;" vertex="1" parent="1">
          <mxGeometry x="420" y="450" width="160" height="40" as="geometry" />
        </mxCell>
        <mxCell id="T10AuIIhw0mTmWrL_Tsa-119" value="&lt;font face=&quot;Times New Roman&quot;&gt;&lt;b&gt;Удаление рейса&lt;/b&gt;&lt;/font&gt;" style="rounded=0;whiteSpace=wrap;html=1;fillColor=#dae8fc;strokeColor=#6c8ebf;strokeWidth=2;align=right;fontSize=15;spacingRight=2;" vertex="1" parent="1">
          <mxGeometry x="420" y="510" width="160" height="40" as="geometry" />
        </mxCell>
        <mxCell id="T10AuIIhw0mTmWrL_Tsa-120" value="&lt;font face=&quot;Times New Roman&quot;&gt;&lt;b&gt;Просмотр&lt;/b&gt;&lt;/font&gt;&lt;div&gt;&lt;font face=&quot;Times New Roman&quot;&gt;&lt;b&gt;информации о рейсе&lt;/b&gt;&lt;/font&gt;&lt;/div&gt;" style="rounded=0;whiteSpace=wrap;html=1;fillColor=#dae8fc;strokeColor=#6c8ebf;strokeWidth=2;align=right;fontSize=15;spacingRight=2;" vertex="1" parent="1">
          <mxGeometry x="420" y="570" width="160" height="40" as="geometry" />
        </mxCell>
        <mxCell id="T10AuIIhw0mTmWrL_Tsa-121" value="" style="endArrow=none;html=1;rounded=0;strokeWidth=2;strokeColor=#6c8ebf;fillColor=#dae8fc;entryX=1;entryY=0.5;entryDx=0;entryDy=0;" edge="1" parent="1" target="T10AuIIhw0mTmWrL_Tsa-118">
          <mxGeometry width="50" height="50" relative="1" as="geometry">
            <mxPoint x="620" y="470" as="sourcePoint" />
            <mxPoint x="590" y="420" as="targetPoint" />
          </mxGeometry>
        </mxCell>
        <mxCell id="T10AuIIhw0mTmWrL_Tsa-122" value="" style="endArrow=none;html=1;rounded=0;strokeWidth=2;strokeColor=#6c8ebf;fillColor=#dae8fc;entryX=1;entryY=0.5;entryDx=0;entryDy=0;" edge="1" parent="1" target="T10AuIIhw0mTmWrL_Tsa-119">
          <mxGeometry width="50" height="50" relative="1" as="geometry">
            <mxPoint x="620" y="530" as="sourcePoint" />
            <mxPoint x="600" y="430" as="targetPoint" />
          </mxGeometry>
        </mxCell>
        <mxCell id="T10AuIIhw0mTmWrL_Tsa-123" value="" style="endArrow=none;html=1;rounded=0;strokeWidth=2;strokeColor=#6c8ebf;fillColor=#dae8fc;entryX=1;entryY=0.5;entryDx=0;entryDy=0;" edge="1" parent="1" target="T10AuIIhw0mTmWrL_Tsa-120">
          <mxGeometry width="50" height="50" relative="1" as="geometry">
            <mxPoint x="620" y="590" as="sourcePoint" />
            <mxPoint x="610" y="440" as="targetPoint" />
          </mxGeometry>
        </mxCell>
        <mxCell id="T10AuIIhw0mTmWrL_Tsa-125" value="" style="endArrow=none;html=1;rounded=0;entryX=0.75;entryY=1;entryDx=0;entryDy=0;strokeWidth=2;strokeColor=#6c8ebf;fillColor=#dae8fc;" edge="1" parent="1" target="T10AuIIhw0mTmWrL_Tsa-3">
          <mxGeometry width="50" height="50" relative="1" as="geometry">
            <mxPoint x="940" y="600" as="sourcePoint" />
            <mxPoint x="840" y="360" as="targetPoint" />
          </mxGeometry>
        </mxCell>
        <mxCell id="T10AuIIhw0mTmWrL_Tsa-126" value="&lt;font face=&quot;Times New Roman&quot;&gt;&lt;b&gt;Добавление пассажира&lt;/b&gt;&lt;/font&gt;" style="rounded=0;whiteSpace=wrap;html=1;fillColor=#dae8fc;strokeColor=#6c8ebf;strokeWidth=2;align=right;fontSize=15;spacingRight=2;" vertex="1" parent="1">
          <mxGeometry x="720" y="400" width="180" height="40" as="geometry" />
        </mxCell>
        <mxCell id="T10AuIIhw0mTmWrL_Tsa-127" value="" style="endArrow=none;html=1;rounded=0;strokeWidth=2;strokeColor=#6c8ebf;fillColor=#dae8fc;entryX=1;entryY=0.5;entryDx=0;entryDy=0;" edge="1" parent="1" target="T10AuIIhw0mTmWrL_Tsa-126">
          <mxGeometry width="50" height="50" relative="1" as="geometry">
            <mxPoint x="940" y="420" as="sourcePoint" />
            <mxPoint x="600" y="430" as="targetPoint" />
          </mxGeometry>
        </mxCell>
        <mxCell id="T10AuIIhw0mTmWrL_Tsa-128" value="&lt;font face=&quot;Times New Roman&quot;&gt;&lt;b&gt;Обновление информации о&amp;nbsp;&lt;/b&gt;&lt;/font&gt;&lt;b style=&quot;font-family: &amp;quot;Times New Roman&amp;quot;;&quot;&gt;пассажире&lt;/b&gt;" style="rounded=0;whiteSpace=wrap;html=1;fillColor=#dae8fc;strokeColor=#6c8ebf;strokeWidth=2;align=right;fontSize=15;spacingRight=2;" vertex="1" parent="1">
          <mxGeometry x="720" y="460" width="180" height="40" as="geometry" />
        </mxCell>
        <mxCell id="T10AuIIhw0mTmWrL_Tsa-129" value="&lt;font face=&quot;Times New Roman&quot;&gt;&lt;b&gt;Удаление&amp;nbsp;&lt;/b&gt;&lt;/font&gt;&lt;b style=&quot;font-family: &amp;quot;Times New Roman&amp;quot;;&quot;&gt;пассажира&lt;/b&gt;" style="rounded=0;whiteSpace=wrap;html=1;fillColor=#dae8fc;strokeColor=#6c8ebf;strokeWidth=2;align=right;fontSize=15;spacingRight=2;" vertex="1" parent="1">
          <mxGeometry x="720" y="520" width="180" height="40" as="geometry" />
        </mxCell>
        <mxCell id="T10AuIIhw0mTmWrL_Tsa-130" value="&lt;font face=&quot;Times New Roman&quot;&gt;&lt;b&gt;Просмотр&amp;nbsp;&lt;/b&gt;&lt;/font&gt;&lt;font style=&quot;background-color: initial;&quot; face=&quot;Times New Roman&quot;&gt;&lt;b&gt;информации о&amp;nbsp;&lt;/b&gt;&lt;/font&gt;&lt;b style=&quot;background-color: initial; font-family: &amp;quot;Times New Roman&amp;quot;;&quot;&gt;пассажире&lt;/b&gt;" style="rounded=0;whiteSpace=wrap;html=1;fillColor=#dae8fc;strokeColor=#6c8ebf;strokeWidth=2;align=right;fontSize=15;perimeterSpacing=0;spacingRight=2;" vertex="1" parent="1">
          <mxGeometry x="720" y="580" width="180" height="40" as="geometry" />
        </mxCell>
        <mxCell id="T10AuIIhw0mTmWrL_Tsa-131" value="" style="endArrow=none;html=1;rounded=0;strokeWidth=2;strokeColor=#6c8ebf;fillColor=#dae8fc;entryX=1;entryY=0.5;entryDx=0;entryDy=0;" edge="1" parent="1" target="T10AuIIhw0mTmWrL_Tsa-128">
          <mxGeometry width="50" height="50" relative="1" as="geometry">
            <mxPoint x="940" y="480" as="sourcePoint" />
            <mxPoint x="910" y="430" as="targetPoint" />
          </mxGeometry>
        </mxCell>
        <mxCell id="T10AuIIhw0mTmWrL_Tsa-132" value="" style="endArrow=none;html=1;rounded=0;strokeWidth=2;strokeColor=#6c8ebf;fillColor=#dae8fc;entryX=1;entryY=0.5;entryDx=0;entryDy=0;" edge="1" parent="1" target="T10AuIIhw0mTmWrL_Tsa-129">
          <mxGeometry width="50" height="50" relative="1" as="geometry">
            <mxPoint x="940" y="540" as="sourcePoint" />
            <mxPoint x="920" y="440" as="targetPoint" />
          </mxGeometry>
        </mxCell>
        <mxCell id="T10AuIIhw0mTmWrL_Tsa-133" value="" style="endArrow=none;html=1;rounded=0;strokeWidth=2;strokeColor=#6c8ebf;fillColor=#dae8fc;entryX=1;entryY=0.5;entryDx=0;entryDy=0;" edge="1" parent="1" target="T10AuIIhw0mTmWrL_Tsa-130">
          <mxGeometry width="50" height="50" relative="1" as="geometry">
            <mxPoint x="940" y="600" as="sourcePoint" />
            <mxPoint x="930" y="450" as="targetPoint" />
          </mxGeometry>
        </mxCell>
        <mxCell id="T10AuIIhw0mTmWrL_Tsa-144" value="" style="endArrow=none;html=1;rounded=0;strokeWidth=2;strokeColor=#6c8ebf;fillColor=#dae8fc;entryX=0.75;entryY=1;entryDx=0;entryDy=0;" edge="1" parent="1" target="T10AuIIhw0mTmWrL_Tsa-4">
          <mxGeometry width="50" height="50" relative="1" as="geometry">
            <mxPoint x="1260" y="600" as="sourcePoint" />
            <mxPoint x="1200" y="280" as="targetPoint" />
          </mxGeometry>
        </mxCell>
        <mxCell id="T10AuIIhw0mTmWrL_Tsa-145" value="&lt;font face=&quot;Times New Roman&quot;&gt;&lt;b&gt;Добавление сотрудника&lt;/b&gt;&lt;/font&gt;" style="rounded=0;whiteSpace=wrap;html=1;fillColor=#dae8fc;strokeColor=#6c8ebf;strokeWidth=2;align=right;fontSize=15;spacingRight=2;" vertex="1" parent="1">
          <mxGeometry x="1040" y="400" width="180" height="40" as="geometry" />
        </mxCell>
        <mxCell id="T10AuIIhw0mTmWrL_Tsa-146" value="" style="endArrow=none;html=1;rounded=0;strokeWidth=2;strokeColor=#6c8ebf;fillColor=#dae8fc;entryX=1;entryY=0.5;entryDx=0;entryDy=0;" edge="1" parent="1" target="T10AuIIhw0mTmWrL_Tsa-145">
          <mxGeometry width="50" height="50" relative="1" as="geometry">
            <mxPoint x="1260" y="420" as="sourcePoint" />
            <mxPoint x="920" y="430" as="targetPoint" />
          </mxGeometry>
        </mxCell>
        <mxCell id="T10AuIIhw0mTmWrL_Tsa-147" value="&lt;font face=&quot;Times New Roman&quot;&gt;&lt;b&gt;Обновление информации о&amp;nbsp;&lt;/b&gt;&lt;/font&gt;&lt;b style=&quot;font-family: &amp;quot;Times New Roman&amp;quot;;&quot;&gt;сотруднике&lt;/b&gt;" style="rounded=0;whiteSpace=wrap;html=1;fillColor=#dae8fc;strokeColor=#6c8ebf;strokeWidth=2;align=right;fontSize=15;spacingRight=2;" vertex="1" parent="1">
          <mxGeometry x="1040" y="460" width="180" height="40" as="geometry" />
        </mxCell>
        <mxCell id="T10AuIIhw0mTmWrL_Tsa-148" value="&lt;font face=&quot;Times New Roman&quot;&gt;&lt;b&gt;Удаление&amp;nbsp;&lt;/b&gt;&lt;/font&gt;&lt;b style=&quot;font-family: &amp;quot;Times New Roman&amp;quot;;&quot;&gt;сотрудника&lt;/b&gt;" style="rounded=0;whiteSpace=wrap;html=1;fillColor=#dae8fc;strokeColor=#6c8ebf;strokeWidth=2;align=right;fontSize=15;spacingRight=2;" vertex="1" parent="1">
          <mxGeometry x="1040" y="520" width="180" height="40" as="geometry" />
        </mxCell>
        <mxCell id="T10AuIIhw0mTmWrL_Tsa-149" value="&lt;font face=&quot;Times New Roman&quot;&gt;&lt;b&gt;Просмотр&amp;nbsp;&lt;/b&gt;&lt;/font&gt;&lt;font style=&quot;background-color: initial;&quot; face=&quot;Times New Roman&quot;&gt;&lt;b&gt;информации о&amp;nbsp;&lt;/b&gt;&lt;/font&gt;&lt;b style=&quot;font-family: &amp;quot;Times New Roman&amp;quot;;&quot;&gt;сотруднике&lt;/b&gt;" style="rounded=0;whiteSpace=wrap;html=1;fillColor=#dae8fc;strokeColor=#6c8ebf;strokeWidth=2;align=right;fontSize=15;perimeterSpacing=0;spacingRight=2;" vertex="1" parent="1">
          <mxGeometry x="1040" y="580" width="180" height="40" as="geometry" />
        </mxCell>
        <mxCell id="T10AuIIhw0mTmWrL_Tsa-150" value="" style="endArrow=none;html=1;rounded=0;strokeWidth=2;strokeColor=#6c8ebf;fillColor=#dae8fc;entryX=1;entryY=0.5;entryDx=0;entryDy=0;" edge="1" parent="1" target="T10AuIIhw0mTmWrL_Tsa-147">
          <mxGeometry width="50" height="50" relative="1" as="geometry">
            <mxPoint x="1260" y="480" as="sourcePoint" />
            <mxPoint x="1230" y="430" as="targetPoint" />
          </mxGeometry>
        </mxCell>
        <mxCell id="T10AuIIhw0mTmWrL_Tsa-151" value="" style="endArrow=none;html=1;rounded=0;strokeWidth=2;strokeColor=#6c8ebf;fillColor=#dae8fc;entryX=1;entryY=0.5;entryDx=0;entryDy=0;" edge="1" parent="1" target="T10AuIIhw0mTmWrL_Tsa-148">
          <mxGeometry width="50" height="50" relative="1" as="geometry">
            <mxPoint x="1260" y="540" as="sourcePoint" />
            <mxPoint x="1240" y="440" as="targetPoint" />
          </mxGeometry>
        </mxCell>
        <mxCell id="T10AuIIhw0mTmWrL_Tsa-152" value="" style="endArrow=none;html=1;rounded=0;strokeWidth=2;strokeColor=#6c8ebf;fillColor=#dae8fc;entryX=1;entryY=0.5;entryDx=0;entryDy=0;" edge="1" parent="1" target="T10AuIIhw0mTmWrL_Tsa-149">
          <mxGeometry width="50" height="50" relative="1" as="geometry">
            <mxPoint x="1260" y="600" as="sourcePoint" />
            <mxPoint x="1250" y="450" as="targetPoint" />
          </mxGeometry>
        </mxCell>
        <mxCell id="T10AuIIhw0mTmWrL_Tsa-153" value="" style="endArrow=none;html=1;rounded=0;strokeWidth=2;strokeColor=#6c8ebf;fillColor=#dae8fc;entryX=0.75;entryY=1;entryDx=0;entryDy=0;" edge="1" parent="1">
          <mxGeometry width="50" height="50" relative="1" as="geometry">
            <mxPoint x="1900" y="900" as="sourcePoint" />
            <mxPoint x="1900" y="250" as="targetPoint" />
          </mxGeometry>
        </mxCell>
        <mxCell id="T10AuIIhw0mTmWrL_Tsa-154" value="" style="endArrow=none;html=1;rounded=0;strokeWidth=2;strokeColor=#6c8ebf;fillColor=#dae8fc;entryX=1;entryY=0.5;entryDx=0;entryDy=0;" edge="1" parent="1" target="T10AuIIhw0mTmWrL_Tsa-156">
          <mxGeometry width="50" height="50" relative="1" as="geometry">
            <mxPoint x="1900" y="420" as="sourcePoint" />
            <mxPoint x="1970" y="420" as="targetPoint" />
          </mxGeometry>
        </mxCell>
        <mxCell id="T10AuIIhw0mTmWrL_Tsa-155" value="" style="endArrow=none;html=1;rounded=0;strokeWidth=2;strokeColor=#6c8ebf;fillColor=#dae8fc;entryX=1;entryY=0.5;entryDx=0;entryDy=0;" edge="1" parent="1" target="T10AuIIhw0mTmWrL_Tsa-157">
          <mxGeometry width="50" height="50" relative="1" as="geometry">
            <mxPoint x="1900" y="480" as="sourcePoint" />
            <mxPoint x="1940" y="510" as="targetPoint" />
          </mxGeometry>
        </mxCell>
        <mxCell id="T10AuIIhw0mTmWrL_Tsa-156" value="&lt;b style=&quot;font-family: &amp;quot;Times New Roman&amp;quot;; font-size: 15px;&quot;&gt;Просмотр всех&amp;nbsp;&lt;/b&gt;&lt;b style=&quot;background-color: initial; font-family: &amp;quot;Times New Roman&amp;quot;;&quot;&gt;&lt;span style=&quot;background-color: initial;&quot;&gt;билетов пассажиров&lt;/span&gt;&lt;/b&gt;" style="rounded=0;whiteSpace=wrap;html=1;fillColor=#dae8fc;strokeColor=#6c8ebf;strokeWidth=2;align=right;fontSize=15;spacingRight=2;" vertex="1" parent="1">
          <mxGeometry x="1660" y="400" width="210" height="40" as="geometry" />
        </mxCell>
        <mxCell id="T10AuIIhw0mTmWrL_Tsa-157" value="&lt;font face=&quot;Times New Roman&quot;&gt;&lt;b&gt;Смена статуса&lt;/b&gt;&lt;/font&gt;&lt;div&gt;&lt;b style=&quot;font-family: &amp;quot;Times New Roman&amp;quot;; background-color: initial;&quot;&gt;билета пассажира&lt;/b&gt;&lt;/div&gt;" style="rounded=0;whiteSpace=wrap;html=1;fillColor=#dae8fc;strokeColor=#6c8ebf;strokeWidth=2;align=right;verticalAlign=middle;fontSize=15;spacingRight=2;" vertex="1" parent="1">
          <mxGeometry x="1660" y="460" width="210" height="40" as="geometry" />
        </mxCell>
        <mxCell id="T10AuIIhw0mTmWrL_Tsa-158" value="&lt;font face=&quot;Times New Roman&quot;&gt;&lt;b&gt;Удаление&lt;/b&gt;&lt;/font&gt;&lt;div&gt;&lt;font face=&quot;Times New Roman&quot;&gt;&lt;b&gt;билета пассажира&lt;/b&gt;&lt;/font&gt;&lt;/div&gt;" style="rounded=0;whiteSpace=wrap;html=1;fillColor=#dae8fc;strokeColor=#6c8ebf;strokeWidth=2;align=right;fontSize=15;spacingRight=2;" vertex="1" parent="1">
          <mxGeometry x="1660" y="520" width="210" height="40" as="geometry" />
        </mxCell>
        <mxCell id="T10AuIIhw0mTmWrL_Tsa-159" value="&lt;font face=&quot;Times New Roman&quot;&gt;&lt;b&gt;Просмотр&lt;/b&gt;&lt;/font&gt;&lt;div&gt;&lt;font face=&quot;Times New Roman&quot;&gt;&lt;b&gt;финансовой диаграммы&lt;/b&gt;&lt;/font&gt;&lt;/div&gt;&lt;div&gt;&lt;font face=&quot;Times New Roman&quot;&gt;&lt;b&gt;со статусами оплаты билетов&lt;/b&gt;&lt;/font&gt;&lt;/div&gt;" style="rounded=0;whiteSpace=wrap;html=1;fillColor=#dae8fc;strokeColor=#6c8ebf;strokeWidth=2;align=right;fontSize=15;spacingRight=2;" vertex="1" parent="1">
          <mxGeometry x="1660" y="580" width="210" height="60" as="geometry" />
        </mxCell>
        <mxCell id="T10AuIIhw0mTmWrL_Tsa-160" value="" style="endArrow=none;html=1;rounded=0;strokeWidth=2;strokeColor=#6c8ebf;fillColor=#dae8fc;entryX=1;entryY=0.5;entryDx=0;entryDy=0;" edge="1" parent="1" target="T10AuIIhw0mTmWrL_Tsa-158">
          <mxGeometry width="50" height="50" relative="1" as="geometry">
            <mxPoint x="1900" y="540" as="sourcePoint" />
            <mxPoint x="1880" y="490" as="targetPoint" />
          </mxGeometry>
        </mxCell>
        <mxCell id="T10AuIIhw0mTmWrL_Tsa-161" value="" style="endArrow=none;html=1;rounded=0;strokeWidth=2;strokeColor=#6c8ebf;fillColor=#dae8fc;exitX=1;exitY=0.5;exitDx=0;exitDy=0;" edge="1" parent="1" source="T10AuIIhw0mTmWrL_Tsa-159">
          <mxGeometry width="50" height="50" relative="1" as="geometry">
            <mxPoint x="1920" y="500" as="sourcePoint" />
            <mxPoint x="1900" y="610" as="targetPoint" />
          </mxGeometry>
        </mxCell>
        <mxCell id="T10AuIIhw0mTmWrL_Tsa-163" value="&lt;font face=&quot;Times New Roman&quot;&gt;&lt;b&gt;Просмотр запросов&lt;/b&gt;&lt;/font&gt;&lt;div&gt;&lt;font face=&quot;Times New Roman&quot;&gt;&lt;b&gt;на сброс паролей&lt;/b&gt;&lt;/font&gt;&lt;/div&gt;" style="rounded=0;whiteSpace=wrap;html=1;fillColor=#dae8fc;strokeColor=#6c8ebf;strokeWidth=2;align=right;fontSize=15;spacingRight=2;" vertex="1" parent="1">
          <mxGeometry x="2020" y="400" width="170" height="40" as="geometry" />
        </mxCell>
        <mxCell id="T10AuIIhw0mTmWrL_Tsa-164" value="" style="endArrow=none;html=1;rounded=0;strokeWidth=2;strokeColor=#6c8ebf;fillColor=#dae8fc;entryX=0.75;entryY=1;entryDx=0;entryDy=0;" edge="1" parent="1" target="T10AuIIhw0mTmWrL_Tsa-101">
          <mxGeometry width="50" height="50" relative="1" as="geometry">
            <mxPoint x="2220" y="820" as="sourcePoint" />
            <mxPoint x="2130" y="390" as="targetPoint" />
          </mxGeometry>
        </mxCell>
        <mxCell id="T10AuIIhw0mTmWrL_Tsa-165" value="" style="endArrow=none;html=1;rounded=0;strokeWidth=2;strokeColor=#6c8ebf;fillColor=#dae8fc;entryX=1;entryY=0.5;entryDx=0;entryDy=0;" edge="1" parent="1" target="T10AuIIhw0mTmWrL_Tsa-163">
          <mxGeometry width="50" height="50" relative="1" as="geometry">
            <mxPoint x="2220" y="420" as="sourcePoint" />
            <mxPoint x="1880" y="430" as="targetPoint" />
          </mxGeometry>
        </mxCell>
        <mxCell id="T10AuIIhw0mTmWrL_Tsa-170" value="&lt;font face=&quot;Times New Roman&quot;&gt;&lt;b&gt;Подтверждение запроса&lt;/b&gt;&lt;/font&gt;&lt;div&gt;&lt;font face=&quot;Times New Roman&quot;&gt;&lt;b&gt;на сброс пароля&lt;/b&gt;&lt;/font&gt;&lt;/div&gt;" style="rounded=0;whiteSpace=wrap;html=1;fillColor=#dae8fc;strokeColor=#6c8ebf;strokeWidth=2;align=right;fontSize=15;spacingRight=2;" vertex="1" parent="1">
          <mxGeometry x="2020" y="460" width="170" height="40" as="geometry" />
        </mxCell>
        <mxCell id="T10AuIIhw0mTmWrL_Tsa-171" value="" style="endArrow=none;html=1;rounded=0;strokeWidth=2;strokeColor=#6c8ebf;fillColor=#dae8fc;entryX=1;entryY=0.5;entryDx=0;entryDy=0;" edge="1" parent="1" target="T10AuIIhw0mTmWrL_Tsa-170">
          <mxGeometry width="50" height="50" relative="1" as="geometry">
            <mxPoint x="2220" y="480" as="sourcePoint" />
            <mxPoint x="1880" y="490" as="targetPoint" />
          </mxGeometry>
        </mxCell>
        <mxCell id="T10AuIIhw0mTmWrL_Tsa-174" value="&lt;font face=&quot;Times New Roman&quot;&gt;&lt;b&gt;Удаление запроса&lt;/b&gt;&lt;/font&gt;&lt;div&gt;&lt;font face=&quot;Times New Roman&quot;&gt;&lt;b&gt;на сброс пароля&lt;/b&gt;&lt;/font&gt;&lt;/div&gt;" style="rounded=0;whiteSpace=wrap;html=1;fillColor=#dae8fc;strokeColor=#6c8ebf;strokeWidth=2;align=right;fontSize=15;spacingRight=2;" vertex="1" parent="1">
          <mxGeometry x="2020" y="520" width="170" height="40" as="geometry" />
        </mxCell>
        <mxCell id="T10AuIIhw0mTmWrL_Tsa-175" value="" style="endArrow=none;html=1;rounded=0;strokeWidth=2;strokeColor=#6c8ebf;fillColor=#dae8fc;entryX=1;entryY=0.5;entryDx=0;entryDy=0;" edge="1" parent="1" target="T10AuIIhw0mTmWrL_Tsa-174">
          <mxGeometry width="50" height="50" relative="1" as="geometry">
            <mxPoint x="2220" y="540" as="sourcePoint" />
            <mxPoint x="1880" y="590" as="targetPoint" />
          </mxGeometry>
        </mxCell>
        <mxCell id="T10AuIIhw0mTmWrL_Tsa-178" value="&lt;font face=&quot;Times New Roman&quot; style=&quot;font-size: 19px;&quot;&gt;Пассажирская часть&lt;/font&gt;" style="shape=umlFrame;whiteSpace=wrap;html=1;pointerEvents=0;width=240;height=40;strokeWidth=2;strokeColor=#666666;fontSize=16;fontStyle=1;movable=1;resizable=1;rotatable=1;deletable=1;editable=1;locked=0;connectable=1;fillColor=#f5f5f5;fontColor=#333333;align=left;spacingLeft=5;" vertex="1" parent="1">
          <mxGeometry x="40" y="720" width="2260" height="360" as="geometry" />
        </mxCell>
        <mxCell id="T10AuIIhw0mTmWrL_Tsa-183" value="" style="endArrow=none;html=1;rounded=0;strokeWidth=2;strokeColor=#6c8ebf;fillColor=#dae8fc;entryX=1;entryY=0.5;entryDx=0;entryDy=0;" edge="1" parent="1" target="T10AuIIhw0mTmWrL_Tsa-185">
          <mxGeometry width="50" height="50" relative="1" as="geometry">
            <mxPoint x="300" y="820" as="sourcePoint" />
            <mxPoint x="370" y="820" as="targetPoint" />
          </mxGeometry>
        </mxCell>
        <mxCell id="T10AuIIhw0mTmWrL_Tsa-184" value="" style="endArrow=none;html=1;rounded=0;strokeWidth=2;strokeColor=#6c8ebf;fillColor=#dae8fc;entryX=1;entryY=0.5;entryDx=0;entryDy=0;" edge="1" parent="1" target="T10AuIIhw0mTmWrL_Tsa-186">
          <mxGeometry width="50" height="50" relative="1" as="geometry">
            <mxPoint x="300" y="880" as="sourcePoint" />
            <mxPoint x="340" y="910" as="targetPoint" />
          </mxGeometry>
        </mxCell>
        <mxCell id="T10AuIIhw0mTmWrL_Tsa-185" value="&lt;b style=&quot;font-family: &amp;quot;Times New Roman&amp;quot;; font-size: 15px;&quot;&gt;Просмотр&lt;/b&gt;&lt;div&gt;&lt;b style=&quot;background-color: initial; font-family: &amp;quot;Times New Roman&amp;quot;;&quot;&gt;&lt;span style=&quot;background-color: initial;&quot;&gt;профиля пассажира&lt;/span&gt;&lt;/b&gt;&lt;/div&gt;" style="rounded=0;whiteSpace=wrap;html=1;fillColor=#dae8fc;strokeColor=#6c8ebf;strokeWidth=2;align=right;fontSize=15;spacingRight=2;" vertex="1" parent="1">
          <mxGeometry x="80" y="800" width="190" height="40" as="geometry" />
        </mxCell>
        <mxCell id="T10AuIIhw0mTmWrL_Tsa-186" value="&lt;b style=&quot;font-family: &amp;quot;Times New Roman&amp;quot;; font-size: 15px;&quot;&gt;Изменение&amp;nbsp;&lt;/b&gt;&lt;b style=&quot;background-color: initial; font-family: &amp;quot;Times New Roman&amp;quot;;&quot;&gt;фото&lt;/b&gt;&lt;div&gt;&lt;b style=&quot;background-color: initial; font-family: &amp;quot;Times New Roman&amp;quot;;&quot;&gt;профиля&amp;nbsp;&lt;/b&gt;&lt;b style=&quot;background-color: initial; font-family: &amp;quot;Times New Roman&amp;quot;;&quot;&gt;пассажира&lt;/b&gt;&lt;/div&gt;" style="rounded=0;whiteSpace=wrap;html=1;fillColor=#dae8fc;strokeColor=#6c8ebf;strokeWidth=2;align=right;verticalAlign=middle;fontSize=15;spacingRight=2;" vertex="1" parent="1">
          <mxGeometry x="80" y="860" width="190" height="40" as="geometry" />
        </mxCell>
        <mxCell id="T10AuIIhw0mTmWrL_Tsa-187" value="&lt;font face=&quot;Times New Roman&quot;&gt;&lt;b&gt;Обновление&lt;/b&gt;&lt;/font&gt;&lt;div&gt;&lt;font face=&quot;Times New Roman&quot;&gt;&lt;b&gt;профиля&amp;nbsp;&lt;/b&gt;&lt;/font&gt;&lt;b style=&quot;background-color: initial; font-family: &amp;quot;Times New Roman&amp;quot;;&quot;&gt;пассажира&lt;/b&gt;&lt;/div&gt;" style="rounded=0;whiteSpace=wrap;html=1;fillColor=#dae8fc;strokeColor=#6c8ebf;strokeWidth=2;align=right;fontSize=15;spacingRight=2;" vertex="1" parent="1">
          <mxGeometry x="80" y="920" width="190" height="40" as="geometry" />
        </mxCell>
        <mxCell id="T10AuIIhw0mTmWrL_Tsa-188" value="&lt;font face=&quot;Times New Roman&quot;&gt;&lt;b&gt;Изменение&amp;nbsp;&lt;/b&gt;&lt;/font&gt;&lt;b style=&quot;font-family: &amp;quot;Times New Roman&amp;quot;; background-color: initial;&quot;&gt;пароля&lt;/b&gt;&lt;div&gt;&lt;b style=&quot;background-color: initial; font-family: &amp;quot;Times New Roman&amp;quot;;&quot;&gt;пассажира&lt;/b&gt;&lt;/div&gt;" style="rounded=0;whiteSpace=wrap;html=1;fillColor=#dae8fc;strokeColor=#6c8ebf;strokeWidth=2;align=right;fontSize=15;spacingRight=2;" vertex="1" parent="1">
          <mxGeometry x="80" y="980" width="190" height="40" as="geometry" />
        </mxCell>
        <mxCell id="T10AuIIhw0mTmWrL_Tsa-189" value="" style="endArrow=none;html=1;rounded=0;strokeWidth=2;strokeColor=#6c8ebf;fillColor=#dae8fc;entryX=1;entryY=0.5;entryDx=0;entryDy=0;" edge="1" parent="1" target="T10AuIIhw0mTmWrL_Tsa-187">
          <mxGeometry width="50" height="50" relative="1" as="geometry">
            <mxPoint x="300" y="940" as="sourcePoint" />
            <mxPoint x="280" y="890" as="targetPoint" />
          </mxGeometry>
        </mxCell>
        <mxCell id="T10AuIIhw0mTmWrL_Tsa-190" value="" style="endArrow=none;html=1;rounded=0;strokeWidth=2;strokeColor=#6c8ebf;fillColor=#dae8fc;exitX=1;exitY=0.5;exitDx=0;exitDy=0;" edge="1" parent="1" source="T10AuIIhw0mTmWrL_Tsa-188">
          <mxGeometry width="50" height="50" relative="1" as="geometry">
            <mxPoint x="320" y="900" as="sourcePoint" />
            <mxPoint x="300" y="1000" as="targetPoint" />
          </mxGeometry>
        </mxCell>
        <mxCell id="T10AuIIhw0mTmWrL_Tsa-191" value="&lt;font face=&quot;Times New Roman&quot;&gt;&lt;b&gt;Отправление запроса&lt;/b&gt;&lt;/font&gt;&lt;div&gt;&lt;font face=&quot;Times New Roman&quot;&gt;&lt;b&gt;на сброс пароля&lt;/b&gt;&lt;/font&gt;&lt;/div&gt;" style="rounded=0;whiteSpace=wrap;html=1;fillColor=#dae8fc;strokeColor=#6c8ebf;strokeWidth=2;align=right;fontSize=15;spacingRight=2;" vertex="1" parent="1">
          <mxGeometry x="2020" y="800" width="170" height="40" as="geometry" />
        </mxCell>
        <mxCell id="T10AuIIhw0mTmWrL_Tsa-192" value="" style="endArrow=none;html=1;rounded=0;strokeWidth=2;strokeColor=#6c8ebf;fillColor=#dae8fc;entryX=1;entryY=0.5;entryDx=0;entryDy=0;" edge="1" parent="1" target="T10AuIIhw0mTmWrL_Tsa-191">
          <mxGeometry width="50" height="50" relative="1" as="geometry">
            <mxPoint x="2220" y="820" as="sourcePoint" />
            <mxPoint x="1880" y="870" as="targetPoint" />
          </mxGeometry>
        </mxCell>
        <mxCell id="T10AuIIhw0mTmWrL_Tsa-194" value="" style="endArrow=none;html=1;rounded=0;strokeWidth=2;strokeColor=#6c8ebf;entryX=1;entryY=0.5;entryDx=0;entryDy=0;exitX=0;exitY=0.5;exitDx=0;exitDy=0;fillColor=#dae8fc;" edge="1" parent="1" source="T10AuIIhw0mTmWrL_Tsa-6" target="T10AuIIhw0mTmWrL_Tsa-193">
          <mxGeometry width="50" height="50" relative="1" as="geometry">
            <mxPoint x="1720" y="240" as="sourcePoint" />
            <mxPoint x="1640" y="240" as="targetPoint" />
          </mxGeometry>
        </mxCell>
        <mxCell id="T10AuIIhw0mTmWrL_Tsa-193" value="Подсистема управления&lt;div&gt;бронированиями&lt;/div&gt;" style="rounded=0;whiteSpace=wrap;html=1;fillColor=#dae8fc;strokeColor=#6c8ebf;strokeWidth=2;fontSize=20;fontStyle=1;fontFamily=Times New Roman;" vertex="1" parent="1">
          <mxGeometry x="1400" y="200" width="240" height="80" as="geometry" />
        </mxCell>
        <mxCell id="T10AuIIhw0mTmWrL_Tsa-196" value="" style="endArrow=none;html=1;rounded=0;strokeWidth=2;strokeColor=#6c8ebf;fillColor=#dae8fc;entryX=0.75;entryY=1;entryDx=0;entryDy=0;" edge="1" parent="1" target="T10AuIIhw0mTmWrL_Tsa-193">
          <mxGeometry width="50" height="50" relative="1" as="geometry">
            <mxPoint x="1580" y="980" as="sourcePoint" />
            <mxPoint x="1910" y="290" as="targetPoint" />
          </mxGeometry>
        </mxCell>
        <mxCell id="T10AuIIhw0mTmWrL_Tsa-197" value="&lt;font face=&quot;Times New Roman&quot;&gt;&lt;b&gt;Просмотр рейсов&lt;/b&gt;&lt;/font&gt;" style="rounded=0;whiteSpace=wrap;html=1;fillColor=#dae8fc;strokeColor=#6c8ebf;strokeWidth=2;align=right;fontSize=15;spacingRight=2;" vertex="1" parent="1">
          <mxGeometry x="420" y="800" width="160" height="40" as="geometry" />
        </mxCell>
        <mxCell id="T10AuIIhw0mTmWrL_Tsa-198" value="" style="endArrow=none;html=1;rounded=0;strokeWidth=2;strokeColor=#6c8ebf;fillColor=#dae8fc;entryX=1;entryY=0.5;entryDx=0;entryDy=0;" edge="1" parent="1" target="T10AuIIhw0mTmWrL_Tsa-197">
          <mxGeometry width="50" height="50" relative="1" as="geometry">
            <mxPoint x="620" y="820" as="sourcePoint" />
            <mxPoint x="280" y="830" as="targetPoint" />
          </mxGeometry>
        </mxCell>
        <mxCell id="T10AuIIhw0mTmWrL_Tsa-199" value="&lt;font face=&quot;Times New Roman&quot;&gt;&lt;b&gt;Бронирование рейса&lt;/b&gt;&lt;/font&gt;" style="rounded=0;whiteSpace=wrap;html=1;fillColor=#dae8fc;strokeColor=#6c8ebf;strokeWidth=2;align=right;fontSize=15;spacingRight=2;" vertex="1" parent="1">
          <mxGeometry x="1390" y="800" width="160" height="40" as="geometry" />
        </mxCell>
        <mxCell id="T10AuIIhw0mTmWrL_Tsa-200" value="" style="endArrow=none;html=1;rounded=0;strokeWidth=2;strokeColor=#6c8ebf;fillColor=#dae8fc;entryX=1;entryY=0.5;entryDx=0;entryDy=0;" edge="1" parent="1" target="T10AuIIhw0mTmWrL_Tsa-199">
          <mxGeometry width="50" height="50" relative="1" as="geometry">
            <mxPoint x="1580" y="820" as="sourcePoint" />
            <mxPoint x="1240" y="830" as="targetPoint" />
          </mxGeometry>
        </mxCell>
        <mxCell id="T10AuIIhw0mTmWrL_Tsa-201" value="&lt;font face=&quot;Times New Roman&quot;&gt;&lt;b&gt;Отмена бронирования&lt;/b&gt;&lt;/font&gt;" style="rounded=0;whiteSpace=wrap;html=1;fillColor=#dae8fc;strokeColor=#6c8ebf;strokeWidth=2;align=right;fontSize=15;spacingRight=2;" vertex="1" parent="1">
          <mxGeometry x="1390" y="880" width="160" height="40" as="geometry" />
        </mxCell>
        <mxCell id="T10AuIIhw0mTmWrL_Tsa-202" value="" style="endArrow=none;html=1;rounded=0;strokeWidth=2;strokeColor=#6c8ebf;fillColor=#dae8fc;entryX=1;entryY=0.5;entryDx=0;entryDy=0;" edge="1" parent="1" target="T10AuIIhw0mTmWrL_Tsa-201">
          <mxGeometry width="50" height="50" relative="1" as="geometry">
            <mxPoint x="1580" y="900" as="sourcePoint" />
            <mxPoint x="1240" y="910" as="targetPoint" />
          </mxGeometry>
        </mxCell>
        <mxCell id="T10AuIIhw0mTmWrL_Tsa-203" value="&lt;font face=&quot;Times New Roman&quot;&gt;&lt;b&gt;Оплата бронирования&lt;/b&gt;&lt;/font&gt;" style="rounded=0;whiteSpace=wrap;html=1;fillColor=#dae8fc;strokeColor=#6c8ebf;strokeWidth=2;align=right;fontSize=15;spacingRight=2;" vertex="1" parent="1">
          <mxGeometry x="1390" y="960" width="160" height="40" as="geometry" />
        </mxCell>
        <mxCell id="T10AuIIhw0mTmWrL_Tsa-204" value="" style="endArrow=none;html=1;rounded=0;strokeWidth=2;strokeColor=#6c8ebf;fillColor=#dae8fc;entryX=1;entryY=0.5;entryDx=0;entryDy=0;" edge="1" parent="1" target="T10AuIIhw0mTmWrL_Tsa-203">
          <mxGeometry width="50" height="50" relative="1" as="geometry">
            <mxPoint x="1580" y="980" as="sourcePoint" />
            <mxPoint x="1240" y="990" as="targetPoint" />
          </mxGeometry>
        </mxCell>
        <mxCell id="T10AuIIhw0mTmWrL_Tsa-205" value="" style="endArrow=none;html=1;rounded=0;strokeWidth=2;strokeColor=#6c8ebf;fillColor=#dae8fc;entryX=1;entryY=0.5;entryDx=0;entryDy=0;" edge="1" parent="1" target="T10AuIIhw0mTmWrL_Tsa-206">
          <mxGeometry width="50" height="50" relative="1" as="geometry">
            <mxPoint x="1900" y="820" as="sourcePoint" />
            <mxPoint x="1970" y="820" as="targetPoint" />
          </mxGeometry>
        </mxCell>
        <mxCell id="T10AuIIhw0mTmWrL_Tsa-206" value="&lt;font face=&quot;Times New Roman&quot;&gt;&lt;b&gt;Просмотр своих билетов&lt;/b&gt;&lt;/font&gt;" style="rounded=0;whiteSpace=wrap;html=1;fillColor=#dae8fc;strokeColor=#6c8ebf;strokeWidth=2;align=right;fontSize=15;spacingRight=2;" vertex="1" parent="1">
          <mxGeometry x="1660" y="800" width="210" height="40" as="geometry" />
        </mxCell>
        <mxCell id="T10AuIIhw0mTmWrL_Tsa-207" value="" style="endArrow=none;html=1;rounded=0;strokeWidth=2;strokeColor=#6c8ebf;fillColor=#dae8fc;entryX=1;entryY=0.5;entryDx=0;entryDy=0;" edge="1" parent="1" target="T10AuIIhw0mTmWrL_Tsa-208">
          <mxGeometry width="50" height="50" relative="1" as="geometry">
            <mxPoint x="1900" y="900" as="sourcePoint" />
            <mxPoint x="1970" y="900" as="targetPoint" />
          </mxGeometry>
        </mxCell>
        <mxCell id="T10AuIIhw0mTmWrL_Tsa-208" value="&lt;font face=&quot;Times New Roman&quot;&gt;&lt;b&gt;Печать&lt;/b&gt;&lt;/font&gt;&lt;div&gt;&lt;font face=&quot;Times New Roman&quot;&gt;&lt;b&gt;подтверждённого билета&lt;/b&gt;&lt;/font&gt;&lt;/div&gt;" style="rounded=0;whiteSpace=wrap;html=1;fillColor=#dae8fc;strokeColor=#6c8ebf;strokeWidth=2;align=right;fontSize=15;spacingRight=2;" vertex="1" parent="1">
          <mxGeometry x="1660" y="880" width="210" height="40" as="geometry" />
        </mxCell>
      </root>
    </mxGraphModel>
  </diagram>
</mxfile>
